/* XPM */
static char * creepy22_xpm[] = {
"22 22 365 2",
"  	c None",
". 	c #000000",
"+ 	c #000601",
"@ 	c #000902",
"# 	c #000401",
"$ 	c #000802",
"% 	c #000E04",
"& 	c #011F0E",
"* 	c #0A241B",
"= 	c #000300",
"- 	c #000501",
"; 	c #00230C",
"> 	c #08724B",
", 	c #0C5F39",
"' 	c #145E46",
") 	c #137154",
"! 	c #208A6A",
"~ 	c #309D81",
"{ 	c #349783",
"] 	c #35806F",
"^ 	c #032D19",
"/ 	c #001306",
"( 	c #000C03",
"_ 	c #033016",
": 	c #5CB2AA",
"< 	c #51CBC6",
"[ 	c #74D6D7",
"} 	c #6CD0CF",
"| 	c #307664",
"1 	c #19573F",
"2 	c #186444",
"3 	c #3A9480",
"4 	c #3FA392",
"5 	c #478773",
"6 	c #04421F",
"7 	c #001506",
"8 	c #000903",
"9 	c #2B6859",
"0 	c #57BDB5",
"a 	c #3FB9A9",
"b 	c #67CDCA",
"c 	c #2F8262",
"d 	c #0E3611",
"e 	c #101C07",
"f 	c #1F0700",
"g 	c #456653",
"h 	c #8EDBDD",
"i 	c #207953",
"j 	c #1F623E",
"k 	c #ACE6EC",
"l 	c #7ECBCB",
"m 	c #0C5F3A",
"n 	c #000100",
"o 	c #044928",
"p 	c #4CAB9D",
"q 	c #56CEC9",
"r 	c #2BA182",
"s 	c #104E21",
"t 	c #10340F",
"u 	c #001502",
"v 	c #340700",
"w 	c #190200",
"x 	c #2E0900",
"y 	c #2E402E",
"z 	c #083B22",
"A 	c #0A0700",
"B 	c #3E9C80",
"C 	c #6FD7D2",
"D 	c #55CAC0",
"E 	c #07432C",
"F 	c #000200",
"G 	c #297A67",
"H 	c #86DDE4",
"I 	c #27875B",
"J 	c #3F3B2D",
"K 	c #160B09",
"L 	c #210300",
"M 	c #5A0E00",
"N 	c #230500",
"O 	c #3F1100",
"P 	c #430800",
"Q 	c #070000",
"R 	c #001B07",
"S 	c #102B0B",
"T 	c #2A7F61",
"U 	c #52B7A4",
"V 	c #033C1E",
"W 	c #00220A",
"X 	c #2D8E75",
"Y 	c #27795D",
"Z 	c #393A2F",
"` 	c #050000",
" .	c #410800",
"..	c #370800",
"+.	c #5B1100",
"@.	c #452205",
"#.	c #592404",
"$.	c #570D00",
"%.	c #550D01",
"&.	c #310500",
"*.	c #030000",
"=.	c #343126",
"-.	c #7BCEC4",
";.	c #26A482",
">.	c #005B2C",
",.	c #000B03",
"'.	c #003B15",
").	c #0B7245",
"!.	c #42A389",
"~.	c #293320",
"{.	c #24110E",
"].	c #571101",
"^.	c #640F00",
"/.	c #421000",
"(.	c #953406",
"_.	c #401A03",
":.	c #471202",
"<.	c #631801",
"[.	c #5F1400",
"}.	c #5A0D00",
"|.	c #201E16",
"1.	c #44B99D",
"2.	c #6DBFB0",
"3.	c #00210A",
"4.	c #03371F",
"5.	c #41B8A4",
"6.	c #55C8BD",
"7.	c #25664D",
"8.	c #231006",
"9.	c #310F00",
"0.	c #5E0F01",
"a.	c #711900",
"b.	c #772002",
"c.	c #994810",
"d.	c #270900",
"e.	c #340F00",
"f.	c #942E07",
"g.	c #7A2402",
"h.	c #641500",
"i.	c #4A0900",
"j.	c #2F8557",
"k.	c #62D1C5",
"l.	c #277658",
"m.	c #001807",
"n.	c #013519",
"o.	c #73D1CE",
"p.	c #33AA8E",
"q.	c #083911",
"r.	c #1B0F01",
"s.	c #260A00",
"t.	c #611200",
"u.	c #7A1F00",
"v.	c #6E2304",
"w.	c #8D3C0D",
"x.	c #360D00",
"y.	c #2E0C00",
"z.	c #94390C",
"A.	c #873508",
"B.	c #540D00",
"C.	c #360600",
"D.	c #170200",
"E.	c #395A32",
"F.	c #186D47",
"G.	c #A4E6EB",
"H.	c #04542D",
"I.	c #1F8C6B",
"J.	c #88DFE3",
"K.	c #044C22",
"L.	c #1E1000",
"M.	c #4B0E00",
"N.	c #691800",
"O.	c #561D01",
"P.	c #853A13",
"Q.	c #756640",
"R.	c #361A0F",
"S.	c #010000",
"T.	c #8B2A0F",
"U.	c #641D05",
"V.	c #280400",
"W.	c #250200",
"X.	c #300500",
"Y.	c #3D3B31",
"Z.	c #25784D",
"`.	c #7BDDDA",
" +	c #278F6A",
".+	c #001C08",
"++	c #79CAC5",
"@+	c #459E8C",
"#+	c #0C3109",
"$+	c #160300",
"%+	c #5D1000",
"&+	c #4D0A00",
"*+	c #551303",
"=+	c #9F4216",
"-+	c #8D5729",
";+	c #2A0C05",
">+	c #0A0100",
",+	c #8D2B0E",
"'+	c #741B06",
")+	c #290400",
"!+	c #3C0700",
"~+	c #490B00",
"{+	c #3B312D",
"]+	c #538A7A",
"^+	c #76DBD7",
"/+	c #86D7CF",
"(+	c #001F0B",
"_+	c #000F04",
":+	c #51B9AC",
"<+	c #53BCB4",
"[+	c #331101",
"}+	c #110200",
"|+	c #621301",
"1+	c #641000",
"2+	c #370700",
"3+	c #6F2805",
"4+	c #78390E",
"5+	c #3F1B03",
"6+	c #3C1902",
"7+	c #86360E",
"8+	c #7D1E05",
"9+	c #6F1A01",
"0+	c #5D1800",
"a+	c #370C00",
"b+	c #724237",
"c+	c #0C1B04",
"d+	c #52B69E",
"e+	c #219778",
"f+	c #3E9C8C",
"g+	c #1C9873",
"h+	c #2D1303",
"i+	c #210600",
"j+	c #200500",
"k+	c #590D00",
"l+	c #300600",
"m+	c #7A2404",
"n+	c #893909",
"o+	c #2E2207",
"p+	c #341901",
"q+	c #91390E",
"r+	c #742804",
"s+	c #712702",
"t+	c #923202",
"u+	c #340D02",
"v+	c #474228",
"w+	c #5ABDA9",
"x+	c #82DBD8",
"y+	c #0C5939",
"z+	c #3C8675",
"A+	c #3AA087",
"B+	c #123712",
"C+	c #191B02",
"D+	c #250400",
"E+	c #4E0A00",
"F+	c #6D1300",
"G+	c #831B01",
"H+	c #7A2104",
"I+	c #40330E",
"J+	c #311603",
"K+	c #973F0E",
"L+	c #712907",
"M+	c #711F00",
"N+	c #791700",
"O+	c #342A12",
"P+	c #236D36",
"Q+	c #63CABA",
"R+	c #097C4D",
"S+	c #00240C",
"T+	c #023518",
"U+	c #278C6F",
"V+	c #33977C",
"W+	c #24210A",
"X+	c #2B0A00",
"Y+	c #410900",
"Z+	c #6A1700",
"`+	c #5B0E00",
" @	c #641101",
".@	c #52340C",
"+@	c #59360A",
"@@	c #792703",
"#@	c #601E00",
"$@	c #822000",
"%@	c #230C00",
"&@	c #2E7643",
"*@	c #45C9B6",
"=@	c #A6E7ED",
"-@	c #015524",
";@	c #001104",
">@	c #043118",
",@	c #2B9172",
"'@	c #5D8F78",
")@	c #2C0E01",
"!@	c #351000",
"~@	c #641400",
"{@	c #3C0600",
"]@	c #3B1C01",
"^@	c #3F1B05",
"/@	c #591B00",
"(@	c #511902",
"_@	c #220C00",
":@	c #0B0C00",
"<@	c #1A7E4D",
"[@	c #A7E8F0",
"}@	c #A7E7ED",
"|@	c #06482A",
"1@	c #116747",
"2@	c #5EC1B6",
"3@	c #44C1AB",
"4@	c #1B653A",
"5@	c #0F1400",
"6@	c #281600",
"7@	c #280600",
"8@	c #461700",
"9@	c #4F1901",
"0@	c #260900",
"a@	c #0B0F00",
"b@	c #1A492C",
"c@	c #35704D",
"d@	c #12652D",
"e@	c #62D4CE",
"f@	c #198968",
"g@	c #001205",
"h@	c #034522",
"i@	c #237656",
"j@	c #37B098",
"k@	c #8ADDDE",
"l@	c #247749",
"m@	c #1D4A14",
"n@	c #12511A",
"o@	c #0F4C24",
"p@	c #121400",
"q@	c #0A0A00",
"r@	c #1F3E19",
"s@	c #62CFC7",
"t@	c #61C9BF",
"u@	c #50BDA9",
"v@	c #0C6E45",
"w@	c #001305",
"x@	c #001B0A",
"y@	c #064F32",
"z@	c #1E674B",
"A@	c #308A70",
"B@	c #41BCA8",
"C@	c #75D5CE",
"D@	c #349571",
"E@	c #255C37",
"F@	c #215B30",
"G@	c #3A9B7F",
"H@	c #026136",
"I@	c #00401A",
"J@	c #1E7253",
"K@	c #000D04",
"L@	c #002009",
"M@	c #00280F",
"N@	c #53B6A9",
"O@	c #4BC3B4",
"P@	c #37A78B",
"Q@	c #2F7E66",
"R@	c #1D5542",
"S@	c #012910",
"T@	c #000A02",
"U@	c #000400",
"V@	c #00210D",
"W@	c #00260E",
"X@	c #00250B",
". . . . . . . + @ # $ % & * = . . . . . . . ",
". . . . . - ; > , ' ) ! ~ { ] ^ / . . . . . ",
". . . . ( _ : < [ } | 1 2 3 4 5 6 7 . . . . ",
". . 8 9 0 a b c d e f g h i j k l m $ . . . ",
". n o p q r s t u v w x y z A B C D E F . . ",
". F ( G H I J K L M N O P w Q R S T U V = . ",
". - W X Y Z `  ...+.@.#.$.%.&.*.=.-.;.>.,.. ",
"- '.).!.~.{.].^./.(._.:.<.[.}.v |.1.2.3.$ . ",
"4.5.6.7.8.9.0.a.b.c.d.e.f.g.h.i.Q j.k.l.m.F ",
"n.o.p.q.r.s.t.u.v.w.x.y.z.A.B.C.D.E.F.G.H.$ ",
"m.I.J.K.L.M.N.O.P.Q.R.S.T.U.V.W.X.Y.Z.`. +.+",
"7 ++@+#+$+%+&+*+=+-+;+>+,+'+)+!+~+{+]+^+/+(+",
"_+:+<+[+}+|+1+2+3+4+5+6+7+8+9+0+a+b+c+d+e+@ ",
"# f+g+h+i+j+k+l+m+n+o+p+q+r+s+t+u+v+w+x+y+F ",
"n z+A+B+C+D+E+F+G+H+I+J+K+L+M+N+O+P+Q+R+S+n ",
"n T+U+V+W+X+Y+Z+`+ @.@+@@@#@$@%@&@*@=@-@;@. ",
". - ,.>@,@'@)@!@~@{@]@^@/@(@_@:@<@[@}@|@n . ",
". . $ 1@2@3@4@5@6@7@8@9@0@a@b@c@d@e@f@g@. . ",
". . F h@i@j@k@l@m@n@o@p@q@r@s@t@u@v@w@n . . ",
". . . + x@y@z@A@B@C@D@E@F@G@H@I@J@K@. . . . ",
". . . . . = L@M@N@O@P@Q@R@S@T@;@+ . . . . . ",
". . . . . . n U@( V@W@X@T@= . . . . . . . . "};
